<mxfile host="app.diagrams.net" modified="2024-02-29T18:41:02.926Z" agent="Mozilla/5.0 (Macintosh; Intel Mac OS X 10_15_7) AppleWebKit/537.36 (KHTML, like Gecko) Chrome/122.0.0.0 Safari/537.36" version="23.1.8" etag="SNA1NC4Hqc6VQwR9-zII" type="github">
  <diagram name="PÃ¡gina-1" id="lGnF9H1Lcmf4lvGc7-DW">
    <mxGraphModel>
      <root>
        <mxCell id="0" />
        <mxCell id="1" parent="0" />
      </root>
    </mxGraphModel>
  </diagram>
</mxfile>
